<mxfile host="app.diagrams.net" modified="2023-07-04T19:02:40.712Z" agent="Mozilla/5.0 (X11; Linux x86_64) AppleWebKit/537.36 (KHTML, like Gecko) Chrome/114.0.0.0 Safari/537.36" version="21.5.2" etag="jme4XhzFjrWOLBrqyacc" type="github">
  <diagram name="PÃ¡gina-1" id="-aCscPGjMUDcG00FSvme">
    <mxGraphModel>
      <root>
        <mxCell id="0" />
        <mxCell id="1" parent="0" />
      </root>
    </mxGraphModel>
  </diagram>
</mxfile>
